<?xml version="1.0" encoding="UTF-8"?><svg id="uuid-ec39ba4a-ae6b-4d97-b9ca-5723b0251d10" xmlns="http://www.w3.org/2000/svg" viewBox="0 0 350.58 483.04"><defs><style>.uuid-723ba3f0-35a1-4f00-b5bf-0e11ab626574{fill:#a98531;}.uuid-564ea255-2854-453e-a85e-5e435b6db47a{fill:#62d4ee;}.uuid-70c1d500-fe8c-4f15-90e7-bd93437b867a{fill:#deb54c;}.uuid-36e1c7d5-a909-40dd-998a-50faca400ae6{fill:#2ab1fd;}.uuid-f9367569-9247-4a6a-8abf-23968f35769a{fill:#a98431;}.uuid-a3758728-5b69-47b5-abee-c6174ecf5f25{fill:#7e4595;}.uuid-9d147ecb-862a-4e98-82c9-baa1817545da{fill:#6ad4e9;}.uuid-4393508e-8b6b-4d1c-9b64-75a47a557bca{fill:#491863;}.uuid-c43b84d2-89dc-43d0-b7aa-6130e22df85c{fill:#f8c257;}.uuid-1c3fe14f-ed2d-4507-bd1d-5443313b4b87{fill:#1d1d1b;}.uuid-e2401d87-27bf-4d7e-b9d3-63be4e67cd4a{fill:#fefefe;}.uuid-494d749b-4d55-4694-9d56-00b9946ceb7b{fill:#efb500;}</style></defs><path class="uuid-494d749b-4d55-4694-9d56-00b9946ceb7b" d="m150.25,278.76c-4.06-.15-8.12-.28-12.18-.44-2.72-.11-5.32-.42-6.38-3.53-.47-1.39-1.91-1.3-3.01-1.63-25.39-7.58-47.77-20.24-66.42-38.96-23.42-23.52-37.1-51.67-39.74-84.7-3.01-37.69,8.81-70.68,33.76-98.99C80.89,22.59,112.31,6.28,149.27,1.59c52.03-6.61,97.79,7.3,135.11,44.5,22.19,22.12,35.5,49.01,38.86,80.07,4.08,37.82-6.58,71.53-31.29,100.72-18.24,21.54-41.4,35.98-68.21,44.91-.41.14-.79.34-1.18.52-1.67,2.09-4.31,1.96-6.54,2.67-2.1.67-3.8,1.48-4.73,3.62-.79,1.81-2.38,2.97-4.35,3.09-4.37.25-8.76.66-13.11-.26-1.85-1.7-.56-3.5.05-5.09,3.39-8.83,7.14-17.53,10.99-26.17,5.06-11.34,11.04-22.23,16.49-33.37,1.47-3.01,3.36-4.86,6.99-4.89,3.76-.03,7.39-.92,10.78-2.66,8.3-4.27,11.95-14.96,7.78-22.91-2.7-5.16-6.72-6.24-11.75-3.24-3.88,2.32-6.69,5.58-8.8,9.49-1.14,2.11-2.41,4.14-3.67,6.18-1.32,2.14-3.04,2.38-4.97.91-5.58-4.25-10.13-9.29-12.52-16-.85-2.37-.37-4.15,1.79-5.64,3.98-2.73,7.78-5.67,10.2-10.01,2.64-4.74,3.57-9.55.85-14.58-3.42-6.33-10.56-7.65-16.15-3.04-6.15,5.07-7.78,11.83-7.48,19.32.2,4.95-.3,5.89-5.42,6.6-6.65.93-13.36,1.17-19.92-.78-3.34-.99-3.71-2.04-1.62-4.83,1.96-2.62,4.24-4.99,5.89-7.83,1.49-2.56,2.73-5.17,2.81-8.24.15-6.05-1.85-9.26-7.45-11.74-3.04-1.35-5.84-1.16-8.76.58-8.13,4.86-13.87,18.93-9.05,27.77,1.51,2.77.86,5.07-1.21,7.07-5.06,4.86-10.5,9.26-16.77,12.52-2.61,1.35-3.86.89-5.32-1.85-2.12-3.96-4.45-7.75-7.94-10.7-4.71-3.99-10.53-5.06-14.93-2.76-5.32,2.79-7.01,6.85-5.19,12.51,2.74,8.52,11.38,14.92,21.08,15.02,3.88.04,5.9,1.41,7.56,4.78,10.16,20.62,19.22,41.69,26.58,63.45.56,1.65,1.27,3.24,1.81,4.89.35,1.09.98,2.29-.35,3.25-2.06.53-4.03.05-5.96-.68Z"/><path class="uuid-c43b84d2-89dc-43d0-b7aa-6130e22df85c" d="m241.89,458.37c-5.43,2.84-11.54,3.49-17.35,5.06-22,5.97-44.06,11.73-66.16,17.34-3.58.91-7.05,3.03-11.03,2-.99-1.29-1.1-2.79-1.1-4.33-.01-32.31-.02-64.61.01-96.92,0-.98.02-1.95.28-2.9.17-.61.48-1.14.99-1.53,6.09-2.24,12.52-3.08,18.83-4.4,22.73-4.76,45.5-9.29,68.39-13.27,2.09-.36,4.32-1.23,6.12.81.49,1.01.53,2.1.55,3.19.11,7.71.52,15.43.52,23.11-.01,22.16,1.22,44.3.82,66.46-.05,1.82.24,3.71-.87,5.38Z"/><path class="uuid-c43b84d2-89dc-43d0-b7aa-6130e22df85c" d="m344.48,353.34c.04,20.07.08,40.14.12,60.21.01,5.32-.09,10.64.05,15.95.05,1.83-.52,2.72-2.28,3.18-14.42,3.73-28.84,7.5-43.25,11.27-8.98,2.35-17.94,4.75-26.93,7.04-.72.18-1.56.98-2.41.15-1.33-2.49-1.49-5.23-1.42-7.93.34-12.38-.49-24.74-.86-37.1-.48-16.04-.71-32.1-1.54-48.13-.07-1.34.03-2.61,1.15-3.57,5.46-1.77,11.21-1.81,16.82-2.65,10.33-1.55,20.75-1.7,31.16-1.35,8.42.28,16.85.68,25.25,1.37,1.1.09,2.17.29,3.16.81.37.19.69.44.98.75Z"/><path class="uuid-a3758728-5b69-47b5-abee-c6174ecf5f25" d="m147.41,378.13c.03,21.77.1,43.54.09,65.31,0,13.1-.1,26.21-.15,39.31-20.86-8.47-41.73-16.94-62.59-25.41-1.22-1.2-1.18-2.75-1.18-4.27-.02-30.38-.02-60.76,0-91.14,0-1.08.02-2.17.36-3.22,1.15-2.29,2.95-1.29,4.54-.78,10.22,3.27,20.41,6.65,30.61,10.01,8.12,2.67,16.24,5.34,24.35,8.03,1.45.5,2.98.84,3.97,2.16Z"/><path class="uuid-a3758728-5b69-47b5-abee-c6174ecf5f25" d="m55.57,445.4c-6.1-2.41-12.22-4.79-18.31-7.23-9.04-3.62-18.07-7.3-27.11-10.92-1.58-.63-2.74-1.14-2.73-3.35.12-30.7.11-61.41.14-92.11,2.65.17,5.11,1.16,7.55,2,11.71,4.02,23.55,7.61,35.28,11.57.73.24,1.45.51,2.19.71,2.57.7,2.98.33,2.48-2.24-.12-.63-.45-1.23-.3-1.91.85-2.78.71-5.55-.07-8.32-.42-1.48-.76-3.01.16-4.39.59-.89,1.27-2.34,2.66-.7.66,1.68.5,3.43.49,5.16-.03,11.94-.09,23.87-.54,35.81-.48,12.91.25,25.86-.22,38.76-.41,11.18-.45,22.35-.58,33.53-.01,1.3.03,2.65-1.09,3.63Z"/><path class="uuid-36e1c7d5-a909-40dd-998a-50faca400ae6" d="m55.57,445.4c.23-16.6.51-33.2.69-49.8.24-22.57.41-45.13.62-67.7-1.16-1.23-1.01-2.78-.95-4.24.13-3.71-.54-7.45.51-11.12.9-1.48,2.46-1.71,3.97-1.95,23.19-3.72,46.35-7.56,69.53-11.35,1.09-.18,2.18-.27,3.27-.01,4.8,1.32,9.76,1.36,14.66,1.49,8,.22,16,.03,24,.08,1.6.01,3.34-.31,4.57,1.19-.41,1.57-1.85,1.35-2.93,1.53-27.48,4.67-54.89,9.73-82.37,14.41-1.59.27-3.33.1-4.67,1.29-.99,1.47-.76,3.14-.77,4.74-.07,8.89.09,17.78-.08,26.67-.11,2.42.66,4.96-.9,7.2-.02,8.67-.06,17.34-.05,26.01.02,24.5.06,49,.1,73.5-9.79-3.85-19.62-7.59-29.2-11.94Z"/><path class="uuid-36e1c7d5-a909-40dd-998a-50faca400ae6" d="m267.33,354.74c-1.07,2.08-.13,4.2-.07,6.29.46,17.13.98,34.26,1.46,51.39.36,12.9.71,25.8,1.06,38.7-9.3,2.41-18.6,4.82-27.9,7.23-.05-1.3-.14-2.59-.16-3.89-.46-31.12-.92-62.24-1.38-93.36-.01-.43-.1-.86-.15-1.29-1.6-2.91-.6-6.04-.83-9.07-.21-10.16-1.04-20.3-.72-30.47.04-1.29.04-2.61-.69-3.77-4.12-1.9-8.64-2.3-13-3.24-13.5-2.91-26.99-5.9-40.49-8.78-1.23-.26-3.58.3-3.24-2.35,1.41-.85,2.98-.66,4.5-.67,6.16-.03,12.31-.03,18.47,0,2.07.01,3.92-.4,5.46-1.83,1.45-.83,2.96-.55,4.48-.24,15.68,3.23,31.4,6.27,47.1,9.4,4.96.99,5.05,1.1,5.09,6.18.01,1.42.11,2.81.53,4.17.04,8.92,1.26,17.81.85,26.74-.19,2.96.61,5.95-.37,8.86Z"/><path class="uuid-70c1d500-fe8c-4f15-90e7-bd93437b867a" d="m266.95,346.14c-.34-9.15-.69-18.3-1.03-27.46-.33-1.5-.14-3.03-.15-4.54-.03-4.44-.03-4.52,4.54-5.34,23.97-4.32,47.93-8.76,71.89-13.12,2.36-.43,4.73-.69,7.14-.45,1.73.25,1.14,1.61,1.14,2.55.04,10.29-.04,20.58.07,30.87.02,2.25-.73,3.25-2.95,3.13-2.45-.13-3.12,1.01-3.08,3.35.13,6.06-.02,12.13-.06,18.19-.19-.01-.37-.02-.56-.03-1.04-1.17-.93-2.61-.94-4.01-.03-3.9.01-7.8-.02-11.7-.03-3.73-.27-3.96-3.98-3.35-11.89,1.94-23.72,4.25-35.58,6.38-10.99,1.98-22.02,3.81-33.01,5.81-1.12.23-2.34.65-3.42-.28Z"/><path class="uuid-564ea255-2854-453e-a85e-5e435b6db47a" d="m349.35,295.23c-13.98,2.61-27.97,5.25-41.95,7.84-12.91,2.39-25.82,4.82-38.76,7.04-2.34.4-2.84,1.34-2.67,3.39.14,1.72-.01,3.46-.03,5.19-.89-1.28-.6-2.77-.43-4.09.4-3.02-.72-4.27-3.79-4.86-16.43-3.15-32.83-6.51-49.24-9.77-.74-.15-1.53-.09-2.29-.12-1.17-.88-1.04-2.04-.73-3.23,1.08-1.93,3.15-1.82,4.91-2.14,16.2-2.92,32.41-5.82,48.65-8.56,6.48-1.09,12.9-2.55,19.5-2.89,22,3.91,44,7.82,66,11.75.28.04.54.3.83.45Z"/><path class="uuid-564ea255-2854-453e-a85e-5e435b6db47a" d="m132.76,299.82c-8.81,1.43-17.61,2.87-26.42,4.29-14.18,2.29-28.36,4.55-42.54,6.85-2.25.37-4.49.85-6.73,1.29-1.53.73-3.03.18-4.51-.15-15.53-3.53-31.11-6.85-46.64-10.41-1.76-.4-3.77-.37-5.06-2.01,10.04-1.46,20.08-2.96,30.13-4.38,17.96-2.55,35.93-5.07,53.9-7.56,5.84-.81,11.71-1.49,17.56-2.23,10.46.96,20.47,4.1,30.74,6.02.85.16,1.7.44,2.28,1.17-1.12,2.29-2.95,4.32-2.71,7.12Z"/><path class="uuid-a3758728-5b69-47b5-abee-c6174ecf5f25" d="m.87,299.68c18.74,4.19,37.47,8.38,56.21,12.57-.07,5.22-.13,10.44-.2,15.65-1.84,1.34-2.32,3.02-1.37,5.11,1.08,2.36.74,4.89.77,7.37,0,.96-.2,1.73-1.34,1.86-1.05.97-2.25.64-3.41.32-13.52-3.71-27.11-7.19-40.63-10.91-1.28-.35-2.55-.69-3.4-1.82-6.18-1.68-8.08-5.65-7.36-11.82.59-5.04.09-10.2.14-15.3.02-1.01-.48-2.18.59-3.03Z"/><path class="uuid-36e1c7d5-a909-40dd-998a-50faca400ae6" d="m135.48,293.18c-9.47-2.56-19.15-4.24-28.72-6.37-1.46-.33-3.03-.34-4.3-1.3,6.32-1.2,12.69-2.05,19.09-2.68,3.51.01,7.23-1.5,10.37,1.33,1.13,3.92,4,5.01,7.81,4.93,17.01-.36,34,1.07,51.01.66,4.38-.11,8.73.79,13.14.67,2.91-.08,5.15-.85,6.41-3.58,1.31-1.16,3.01-1.23,4.59-1.51,12.69-2.22,25.43-4.13,38.14-6.26,1.73-.29,3.48-.07,5.22-.18,8.18.81,16.16,2.8,24.25,4.11-7.4,2.32-15.14,2.98-22.72,4.4-13.07,2.44-26.19,4.62-39.28,6.92-3.53.62-7.1,1.01-10.53,2.11-13.19-1.37-26.43-1.31-39.67-1.48-10.41-.14-20.81-.79-31.23-.63-1.27.04-2.66.08-3.58-1.14Z"/><path class="uuid-564ea255-2854-453e-a85e-5e435b6db47a" d="m258.25,278.91c-5.64,1.66-11.51,2.1-17.26,3.17-9.39,1.75-18.85,3.16-28.28,4.68-.64.1-1.31.04-1.97.05-1.59-2.48-3.93-3.15-6.77-2.99-2.51.14-5.04.07-7.56,0-1.32-.04-2.65-.1-3.61-1.22-.37-.79-.42-1.46.6-1.79,4.06.06,8.12.14,12.18.16,2.83.01,4.99-1.03,5.39-4.09.18-1.36.93-1.75,2.1-2.04,3.18-.79,6.34-1.68,9.51-2.53,11.88,2.21,23.88,3.85,35.67,6.6Z"/><path class="uuid-4393508e-8b6b-4d1c-9b64-75a47a557bca" d="m7.5,329.84c15.05,4.06,30.11,8.13,45.17,12.16.73.19,1.51.16,2.27.23.85.71,1.39,1.45,1.46,2.7.13,2.39-.29,3.36-3.02,2.41-7.94-2.76-15.95-5.32-23.94-7.93-6.22-2.03-12.45-4.04-18.69-6.02-1.16-.37-2.26-.79-3.18-1.61-.03-.64-.05-1.29-.07-1.94Z"/><path class="uuid-9d147ecb-862a-4e98-82c9-baa1817545da" d="m131.57,284.2c-3.24-1.17-6.62-1.35-10.03-1.37,7.19-1.06,14.39-2.14,21.59-3.18,2.37-.34,4.75-.59,7.12-.89,2.09.02,4.18.04,6.27.07,3.14-1.18,6.32.29,9.47-.13,5.72.01,11.44-.4,17.14.25,1.83.73,3.72,1.3,5.6,1.88.72.22,2.25.37,1.1,1.85-1.65.81-3.42.55-5.16.6-13.89.47-27.74-.99-41.63-.66-3.88.09-7.85-.41-11.47,1.58Z"/><path class="uuid-e2401d87-27bf-4d7e-b9d3-63be4e67cd4a" d="m165.6,279.57c-3.06.13-6.08-.11-9.08-.74-8.29-24.77-18.13-48.92-30-72.24-1.03-2.02-2.15-2.8-4.5-2.74-9.48.25-16.82-3.72-21.69-11.75-3.69-6.08-3.18-11.64,1.03-15.45,4.61-4.17,10.97-4.45,16.7-.63,4.7,3.13,7.89,7.55,10.19,12.55,1.17,2.54,2.35,2.76,4.7,1.37,6.28-3.7,12-8.01,17.01-13.28,1.32-1.39,1.73-2.49.6-4.22-5.93-9.08.28-26.06,10.72-30.65,5.76-2.53,14.94,2.82,15.79,9.3.64,4.89-.76,9.27-3.61,13.2-1.85,2.56-3.8,5.06-5.88,7.44-1.23,1.41-1.25,2.2.64,2.71,7.65,2.08,15.34,2.53,23.1.56,2.2-.56,2.75-1.71,2.48-4.05-.89-7.64.47-14.7,6.46-20.31,3.66-3.43,7.87-4.92,12.66-3.15,4.97,1.83,7.12,6.04,7.53,10.96.55,6.61-2.79,11.67-7.46,15.98-1.6,1.48-3.25,3.05-5.17,4-2.97,1.48-2.71,3.26-1.58,5.78,2.55,5.69,6.2,10.43,11.18,14.26,2.34,1.8,3.64,1.82,5.18-1.02,2.37-4.38,4.55-8.96,8.43-12.37,2.07-1.81,4.18-3.49,6.97-4.16,4.05-.98,6.77.05,8.97,3.57,7.11,11.4-.98,26.68-15.2,27.76-5.72.43-8.66,2.54-11.17,7.54-9.62,19.17-18.94,38.46-26.56,58.51-.3.8-.44,1.66-.66,2.49-.25.49-.5.99-.75,1.48-.78,1.44-1.57,1.29-2.35,0-1.98-1.54-5.01-.27-6.73-2.48-.54-1.02.03-1.91.36-2.8,5.59-14.99,11.71-29.76,18.48-44.27,3.41-7.31,7.06-14.49,10.73-21.66.98-1.92,1.17-3.3-.95-4.64-7.14-4.52-12.29-10.8-15.89-18.32-.99-2.07-2.21-2.59-4.42-2.08-10.39,2.37-20.68,2.4-30.69-1.82-1.75-.74-3.15-.3-4.47.99-5.95,5.84-12.38,11.09-19.74,15.12-2.07,1.13-1.49,2.61-.68,4.15,5.04,9.55,9.29,19.45,13.5,29.37,6.05,14.23,11.3,28.75,16.05,43.45.26.75.87,1.63-.23,2.29Z"/><path class="uuid-f9367569-9247-4a6a-8abf-23968f35769a" d="m240.03,350.85c.06,2.99.11,5.99.17,8.98-6.14.13-12.05,1.74-18.03,2.88-18.47,3.5-36.91,7.19-55.35,10.84-6.29,1.24-12.55,2.59-18.83,3.89-1.74-2.96-.92-6.08-.64-9.18.13-.37.34-.69.62-.98,1.24-1.04,2.79-1.21,4.29-1.48,27.84-5.12,55.74-9.94,83.58-15.07,1.39-.26,2.81-.58,4.19.12Z"/><path class="uuid-4393508e-8b6b-4d1c-9b64-75a47a557bca" d="m147.84,367.62c.05,3.27.1,6.54.16,9.81-.2.23-.39.47-.59.7-17.66-5.79-35.32-11.58-52.99-17.35-3.21-1.05-6.46-1.97-9.69-2.95,0-2.37-.02-4.75-.03-7.12,1.34-1.07,2.75-.43,4.08-.06,17.97,4.9,36,9.57,53.95,14.52,1.79.5,4.01.41,5.11,2.45Z"/><path class="uuid-723ba3f0-35a1-4f00-b5bf-0e11ab626574" d="m266.95,346.14c24.83-4.4,49.66-8.75,74.46-13.27,2.43-.44,2.59.35,2.57,2.19-.06,6.08-.05,12.16-.07,18.25-6.38-.78-12.81-.99-19.22-1.4-7.77-.5-15.52-.53-23.29-.52-8.29.02-16.47,1.22-24.65,2.44-3.12.47-6.29.62-9.43.91-.61-2.84-.53-5.72-.37-8.6Z"/><path class="uuid-564ea255-2854-453e-a85e-5e435b6db47a" d="m180.93,302.46c6.39,2.17,13.09,3,19.63,4.56,12.57,3,25.35,5.07,37.83,8.47-.52,1.34-1.78,1.53-2.95,1.73-28.69,5.11-57.32,10.61-86.02,15.69-.43.08-.87.1-1.31.12-12.86-2.32-25.51-5.58-38.29-8.28-6.76-1.43-13.53-2.89-20.25-4.49-1.41-.34-3.17-.26-3.82-2.06,6.83-1.9,13.9-2.56,20.83-3.92,10.46-2.06,20.98-3.9,31.52-5.56,12.79-2.02,25.44-4.93,38.33-6.36,1.52-1.04,3.02-1.06,4.5.1Z"/><path class="uuid-a3758728-5b69-47b5-abee-c6174ecf5f25" d="m85.75,318.2c10.19,2.88,20.63,4.71,30.93,7.11,10.42,2.42,20.86,4.75,31.28,7.12,1.23,1.2,1.08,2.77,1.08,4.26.04,8.95.03,17.89,0,26.84,0,1.39.07,2.83-.92,4.01l-.29.09c-20.97-5.92-42.02-11.57-63.15-16.9-.05-10.1-.11-20.2-.14-30.29,0-.94-.29-2.08,1.21-2.24Z"/><path class="uuid-1c3fe14f-ed2d-4507-bd1d-5443313b4b87" d="m180.93,302.46c-1.5-.03-3-.07-4.5-.1-6.01-.73-12.05-.29-18.08-.49-7.02-.24-14.05-.4-21.08-.46-1.77-.02-3.2-.51-4.51-1.58-1.23-3.93-.86-4.85,2.72-6.64,22.93.48,45.85.97,68.78,1.42,2.14.04,4.17.17,5.72,1.86.07,1.13.14,2.26.21,3.39-.58,2.21-2.17,2.67-4.26,2.65-8.34-.08-16.67-.05-25-.05Z"/><path class="uuid-70c1d500-fe8c-4f15-90e7-bd93437b867a" d="m148.13,367.53c-.06-11.7-.11-23.41-.17-35.11,12.7-2.37,25.4-4.77,38.11-7.11,17.13-3.16,34.28-6.28,51.41-9.43.31-.06.6-.26.9-.39.97.05,1.25.59,1.26,1.49.11,11.29.25,22.58.39,33.87-10.27,1.9-20.54,3.84-30.81,5.7-11.57,2.1-23.16,4.12-34.74,6.19-8.79,1.57-17.57,3.19-26.35,4.79Z"/><path class="uuid-1c3fe14f-ed2d-4507-bd1d-5443313b4b87" d="m190.29,282.28c.79.62,1.57.93,2.36,0,4.56.76,9.17.4,13.76.52,2.79.08,4.38,1.09,4.33,4.01.05,3.44-2.05,4.49-5.1,4.44-14.26-.27-28.53-.55-42.79-.83-8.45-.17-16.9-.3-25.34-.52-4.18-.11-5.6-1.56-5.93-5.71,1.18-2.19,3.07-2.68,5.48-2.63,16.77.34,33.54.58,50.3.83.97.02,1.95-.07,2.93-.11Z"/><path class="uuid-494d749b-4d55-4694-9d56-00b9946ceb7b" d="m165.6,279.57c-4.1-13.74-9.13-27.16-14.53-40.45-4.91-12.09-10.13-24.04-16.13-35.65-.82-1.58-1.08-2.53.91-3.56,7.84-4.09,14.57-9.66,20.71-15.92,1.32-1.35,2.34-1.73,4.22-.9,10.14,4.44,20.63,4.77,31.23,1.95,2.61-.7,3.79-.24,4.92,2.32,3.48,7.83,8.83,14.24,16.31,18.69,2.09,1.24,2.57,2.02,1.28,4.44-11.35,21.23-21.04,43.2-29.39,65.75-.45,1.22-1.04,2.38-1.57,3.58-5.99-.1-11.97-.17-17.96-.25Z"/></svg>